# xmcd
#
# Track frame offsets: 
#        150
#        13236
#        29624
#        42773
#        59150
#        75285
#        91981
#        107807
#        123202
#        137816
#        155576
#        170214
#        188523
#        206162
#
# Disc length: 2961 seconds
#
# Revision: 0
# Processed by: cddbd v1.5.1PL0 Copyright (c) Steve Scherf et al.
# Submitted via: ExactAudioCopy v0.95b2
#
DISCID=c10b8f0e
DTITLE=Eli Young Band - Eli Young Band
DYEAR=2002
DGENRE=Country
TTITLE0=I'm In Love
TTITLE1=When We Were Innocent
TTITLE2=Show You How To Love Again
TTITLE3=I Still Think It's Me
TTITLE4=Know I would
TTITLE5=Guardian Angel
TTITLE6=When You Come Down My Way
TTITLE7=Uncertain
TTITLE8=Drive Away
TTITLE9=We Could Be Forever
TTITLE10=Here's To You
TTITLE11=San Antone
TTITLE12=Back of My Mind
TTITLE13=Down On Padre
EXTD=
EXTT0=
EXTT1=
EXTT2=
EXTT3=
EXTT4=
EXTT5=
EXTT6=
EXTT7=
EXTT8=
EXTT9=
EXTT10=
EXTT11=
EXTT12=
EXTT13=
PLAYORDER=
